# xmcd CD database file
#
# Track frame offsets:
#	183
#	8138
#	19945
#	32140
#	40158
#	53213
#	63048
#	75243
#	86568
#	98558
#	111693
#	124483
#	135245
#	149158
#	161433
#	171558
#	182143
#	192738
#	207393
#	215323
#	227445
#	241858
#
# Disc length: 3409 seconds
#
# Revision: 0
# Processed by: cddbd v1.5.1PL0 Copyright (c) Steve Scherf et al.
# Submitted via: CDex 1.50
#
DISCID=340d4f16
DTITLE=Various Artist - Ring of Fire
DYEAR=1990
DGENRE=Country
TTITLE0=Stee Guitar
TTITLE1=Ring of Fire
TTITLE2=Stand by your man
TTITLE3=Golden slipper
TTITLE4=Rose Garden
TTITLE5=He'll have to go
TTITLE6=500 miles away from home
TTITLE7=Timber I'm falling
TTITLE8=Talk back trambling lips
TTITLE9=Jambalaya
TTITLE10=Miller's cave
TTITLE11=Only lave can break a heart
TTITLE12=The banks of Ohio
TTITLE13=Behind closed doors
TTITLE14=Ruby don't ake your love to town
TTITLE15=Once a day
TTITLE16=Please help me I'm falling
TTITLE17=Harper Valley PTA
TTITLE18=Johnny Be Good
TTITLE19=Divorce
TTITLE20=Four Walls
TTITLE21=Take me home country roads
EXTD=YEAR: 1990
EXTT0=
EXTT1=
EXTT2=
EXTT3=
EXTT4=
EXTT5=
EXTT6=
EXTT7=
EXTT8=
EXTT9=
EXTT10=
EXTT11=
EXTT12=
EXTT13=
EXTT14=
EXTT15=
EXTT16=
EXTT17=
EXTT18=
EXTT19=
EXTT20=
EXTT21=
PLAYORDER=
